# xmcd
#
# Track frame offsets:
#	151
#	19689
#	34448
#	51462
#	71603
#	88223
#	103339
#	120228
#	140996
#	157309
#	178230
#	197495
#	208709
#	220618
#	232761
#	242889
#	256562
#	266577
#
# Disc length: 3728 seconds
#
# Revision: 1
# Processed by: cddbd v1.5.1PL2 Copyright (c) Steve Scherf et al.
# Submitted via: audiograbber 1.83.01
#
DISCID=0f0e8e12
DTITLE=Various Artist - Euro Megahits 2001-01 cd2
DYEAR=2001
DGENRE=Dance
TTITLE0=Aaliyah ft DMX - Back in one piece
TTITLE1=A Teens - Upside down
TTITLE2=Azzido Da Bass - Dooms Night
TTITLE3=Phoenix - If i ever feel better
TTITLE4=Blank and Jones - Beyond time
TTITLE5=JPX - I wanna know
TTITLE6=Limp Bizkit - My Generation
TTITLE7=Melanie C - I fthat were me
TTITLE8=Lee ann Rimes - Can't fight the moonlight
TTITLE9=Snoop Dogg ft Tupac - Same
TTITLE10=Wu Tang Clan - Gravel pit
TTITLE11=The moon - Blow the speaker (euro megamix)
TTITLE12=The tone selector - Russian Roulette (euro megamix)
TTITLE13=Advance - Take me to the top  (euro megamix)
TTITLE14=3 dubbs in a sleeve - Tease (euro megamix)
TTITLE15=Silvio Ecomo - No dip (euro megamix)
TTITLE16=Collusion - Impetuous (euro megamix)
TTITLE17=Public Domain - Operation Blade (euro megamix)
EXTD=
EXTT0=
EXTT1=
EXTT2=
EXTT3=
EXTT4=
EXTT5=
EXTT6=
EXTT7=
EXTT8=
EXTT9=
EXTT10=
EXTT11=
EXTT12=
EXTT13=
EXTT14=
EXTT15=
EXTT16=
EXTT17=
PLAYORDER=
